<?xml version="1.0" standalone="no"?>
<!DOCTYPE svg PUBLIC "-//W3C//DTD SVG 20010904//EN"
 "http://www.w3.org/TR/2001/REC-SVG-20010904/DTD/svg10.dtd">
<svg version="1.0" xmlns="http://www.w3.org/2000/svg"
 width="236.000000pt" height="236.000000pt" viewBox="0 0 236.000000 236.000000"
 preserveAspectRatio="xMidYMid meet">
<metadata>
Created by potrace 1.10, written by Peter Selinger 2001-2011
</metadata>
<g transform="translate(0.000000,236.000000) scale(0.050000,-0.050000)"
fill="#000000" stroke="none">
<path d="M1248 4645 c-9 -41 -16 -89 -17 -107 -1 -17 -12 -45 -25 -61 -13 -16
-24 -46 -23 -68 1 -21 -9 -110 -22 -198 -13 -87 -20 -179 -15 -205 4 -25 0
-46 -9 -46 -10 0 -17 -81 -14 -179 2 -112 11 -175 23 -167 11 7 14 3 7 -9 -7
-12 -31 -17 -53 -11 -30 8 -40 1 -40 -29 0 -76 -66 -136 -106 -96 -42 42 -42
60 -4 98 22 23 24 32 5 40 -19 8 -18 15 4 30 22 15 24 31 8 66 l-21 46 -25
-47 c-14 -26 -24 -75 -23 -110 1 -34 2 -80 2 -102 0 -22 1 -86 1 -143 1 -57
-9 -110 -21 -117 -16 -10 -11 -27 14 -55 26 -30 29 -43 11 -50 -30 -10 -34
-137 -5 -155 11 -7 19 -37 18 -66 -3 -54 -3 -54 -17 6 -13 59 -14 58 -30 -28
-13 -71 -9 -91 17 -106 42 -24 41 -72 -1 -69 -28 3 -35 -18 -38 -117 -4 -127
-18 -180 -63 -232 -31 -37 -50 -102 -54 -188 -1 -33 -10 -72 -20 -88 -12 -18
-7 -33 15 -46 46 -25 41 -51 -12 -67 l-44 -15 49 -20 50 -19 -50 -14 -50 -13
57 -15 c53 -14 56 -20 44 -84 -11 -57 -4 -78 38 -120 28 -28 51 -60 51 -70 0
-11 20 -29 45 -41 91 -43 173 -232 115 -268 -11 -7 -20 -30 -20 -51 0 -22 -9
-39 -20 -39 -11 0 -20 -37 -20 -82 0 -56 8 -79 25 -73 15 5 22 36 18 82 -5 56
1 73 25 73 25 0 33 -26 36 -120 2 -66 4 -140 5 -165 1 -38 -8 -44 -59 -39 -57
5 -36 -35 31 -60 8 -3 18 -27 22 -54 9 -60 -54 -108 -83 -62 -16 25 -19 24
-20 -7 0 -32 10 -36 60 -26 34 7 60 4 60 -7 0 -11 -10 -20 -22 -20 -12 0 -17
-14 -11 -30 7 -17 1 -30 -11 -30 -13 0 -6 -13 15 -30 31 -24 34 -33 12 -47
-20 -13 -21 -22 -4 -32 28 -18 8 -92 -34 -125 -28 -22 -27 -26 7 -39 76 -29
96 -67 36 -67 l-55 0 55 -58 c50 -52 66 -88 70 -157 3 -37 42 -31 42 6 0 17 8
26 19 20 10 -6 24 -3 31 9 7 11 -2 20 -19 20 -22 0 -31 21 -32 75 -1 122 -17
466 -42 911 -24 426 -16 501 47 438 13 -13 40 -24 60 -24 35 0 37 -35 36 -695
-1 -382 -1 -715 0 -740 0 -27 12 -45 31 -45 21 0 30 15 27 45 -3 25 14 85 38
134 52 105 54 114 14 81 -25 -21 -30 -17 -30 29 0 31 9 48 20 41 11 -7 26 2
33 21 7 18 1 40 -13 49 -17 11 -21 38 -12 88 8 42 6 72 -5 72 -11 0 -15 17 -9
38 5 21 0 44 -12 51 -15 9 -12 24 11 46 21 22 25 36 10 41 -38 12 -26 44 17
44 44 0 54 31 15 47 -19 8 -19 14 2 29 19 14 21 21 4 27 -32 11 -53 227 -24
245 13 8 23 61 23 118 1 70 7 95 19 75 15 -23 24 -24 49 -3 19 16 47 20 76 10
51 -18 47 -18 116 1 38 10 43 9 20 -7 -44 -31 69 -29 118 2 31 19 44 16 72
-12 36 -35 137 -29 179 10 26 24 111 23 111 -2 0 -11 16 -20 35 -20 28 1 29 4
7 18 -43 28 178 36 231 9 35 -18 46 -18 55 5 7 18 -3 28 -29 28 -42 0 -52 29
-17 51 12 7 32 3 44 -9 31 -31 60 -27 47 7 -9 23 2 22 53 -6 71 -38 91 -41
131 -15 18 11 34 7 45 -10 14 -22 17 -22 18 -2 0 15 8 22 17 16 9 -6 28 10 42
36 22 41 37 45 133 40 84 -5 108 0 108 23 0 38 72 38 87 -1 7 -17 36 -30 67
-30 l56 1 -65 41 c-36 23 -65 47 -65 53 0 7 5 6 12 0 6 -7 51 0 100 15 l88 26
-13 -51 c-9 -36 -6 -47 10 -37 13 8 23 33 23 56 0 33 10 39 52 31 34 -7 65 2
88 25 33 33 40 34 80 6 34 -24 49 -25 67 -7 18 19 16 23 -7 18 -16 -4 -32 2
-34 13 -2 11 10 19 26 17 22 -2 24 4 7 24 -18 22 -11 24 39 10 37 -11 66 -11
73 0 16 26 -9 62 -32 48 -11 -6 -19 2 -19 18 0 16 28 39 62 51 44 15 59 31 51
52 -7 18 4 40 27 55 26 16 35 38 28 67 -14 54 24 197 61 235 25 24 24 33 -9
69 -38 40 -37 41 6 69 32 22 38 37 23 57 -13 18 -17 100 -9 218 10 176 8 195
-34 251 -39 54 -42 66 -18 100 16 23 28 95 29 169 1 71 11 133 23 137 11 3 19
26 18 50 0 24 -6 32 -11 18 -6 -14 -19 -25 -30 -25 -11 0 -14 8 -8 19 6 10 2
24 -9 31 -12 7 -16 32 -9 54 9 27 6 36 -9 27 -12 -7 -22 -26 -22 -42 0 -16
-13 -29 -30 -29 -16 0 -29 7 -28 15 11 65 -6 105 -42 105 -57 0 -80 75 -72
225 9 158 24 193 73 180 22 -5 39 0 39 11 0 12 -20 24 -45 28 -25 4 -43 18
-40 33 3 14 -8 39 -25 56 -17 17 -26 47 -20 67 7 21 -1 40 -19 47 -17 6 -31
22 -31 34 0 12 11 15 23 7 17 -10 19 -3 8 24 -9 21 -15 63 -13 94 2 34 -5 52
-17 44 -13 -7 -16 11 -8 50 9 46 5 60 -15 56 -15 -3 -30 14 -34 39 -4 25 -14
45 -23 45 -9 0 -9 -35 1 -78 23 -104 36 -233 48 -472 6 -110 15 -269 20 -353
l11 -153 -92 -35 c-69 -27 -96 -30 -114 -12 -16 16 -16 23 -1 23 12 0 23 20
24 45 9 142 16 218 29 335 8 72 22 279 32 460 9 182 23 346 31 365 11 28 4 35
-38 35 -47 0 -52 -7 -52 -80 0 -44 9 -80 20 -80 11 0 20 -13 20 -29 0 -17 -12
-25 -28 -19 -31 12 -63 -141 -41 -199 8 -18 4 -33 -9 -33 -12 0 -22 -20 -22
-45 -1 -102 -35 -95 -37 8 -1 75 4 98 17 77 16 -24 19 -21 20 15 0 25 -8 45
-17 45 -10 0 -15 25 -11 55 14 130 -16 285 -56 285 -37 0 -38 -13 -24 -320 13
-306 12 -320 -24 -318 -49 3 -146 33 -113 36 14 1 25 20 25 42 0 22 11 40 25
40 16 1 18 6 4 15 -28 20 -32 101 -6 117 14 9 14 18 -2 27 -13 9 -24 68 -25
138 -1 68 -8 123 -17 123 -8 0 -20 23 -27 50 -24 94 -141 71 -126 -25 11 -71
84 -463 98 -526 4 -19 -10 -29 -39 -28 -25 1 -126 3 -225 5 l-181 4 -12 62
c-58 286 -448 311 -531 34 -16 -53 -32 -74 -51 -67 -16 6 -41 11 -57 11 -83 0
37 247 155 319 133 81 327 60 414 -46 42 -50 68 -41 149 56 110 131 91 190
-23 71 -68 -71 -87 -73 -162 -18 -197 146 -506 22 -602 -240 l-42 -116 -104 9
c-128 10 -159 19 -144 44 10 16 47 172 104 446 10 46 5 55 -30 55 -49 0 -80
-50 -73 -120 2 -27 -3 -64 -12 -82 -8 -17 -18 -96 -20 -175 -3 -111 -11 -143
-34 -143 -23 0 -26 17 -17 75 6 41 18 143 25 225 7 83 22 166 31 185 16 31 8
35 -73 35 l-91 0 31 -72 c37 -89 37 -88 0 -88 -35 0 -37 -18 -11 -87 11 -30
11 -71 0 -106 l-19 -57 7 54 c4 30 0 50 -10 44 -24 -15 -21 -268 3 -268 11 0
21 25 23 55 2 40 5 44 11 14 13 -67 -45 -188 -63 -131 -12 35 -20 39 -43 21
-22 -19 -28 -17 -28 9 0 17 15 32 32 32 27 0 28 6 9 29 -14 16 -19 39 -12 50
8 12 4 21 -8 21 -11 0 -21 23 -21 51 0 28 -9 46 -19 40 -11 -7 -16 -88 -12
-187 5 -96 11 -268 15 -384 l6 -210 -80 5 c-65 3 -71 1 -30 -12 89 -29 182
-43 172 -26 -6 9 3 16 19 16 19 0 29 -21 29 -65 0 -76 -34 -110 -44 -43 -5 39
-23 47 -131 63 -128 18 -200 112 -85 112 22 0 40 9 40 19 0 11 -13 15 -30 8
-22 -8 -30 3 -30 42 0 46 6 52 45 40 44 -14 44 -13 8 27 -33 37 -34 56 -16
197 45 337 67 457 95 510 50 98 38 277 -20 277 -39 0 -51 -14 -64 -75z m1260
-367 c53 -42 112 -136 112 -180 0 -29 -391 -15 -422 16 -23 23 8 117 56 171
46 50 186 47 254 -7z m-898 -203 c-24 -74 -51 -400 -39 -470 7 -41 3 -65 -12
-65 -15 0 -20 45 -16 139 7 140 -10 194 -44 140 -16 -25 -18 -24 -19 4 0 18
16 37 36 42 29 7 38 32 41 116 6 115 14 139 47 139 12 0 15 -18 6 -45z m233
28 c53 -13 53 -14 25 -93 -15 -44 -30 -129 -33 -190 l-5 -110 170 -15 c94 -8
230 -20 303 -26 197 -18 290 43 359 237 29 83 22 80 284 113 218 28 205 38
221 -183 8 -102 19 -230 26 -284 l12 -98 -608 13 c-530 11 -969 37 -987 57 -3
3 9 139 27 301 l32 295 61 -2 c33 -2 84 -8 113 -15z m247 -83 c33 -23 92 -64
130 -92 80 -58 150 -54 234 12 75 58 173 55 155 -5 -84 -269 -440 -287 -560
-29 -75 160 -65 185 41 114z m1229 -260 l-2 -280 -49 0 c-48 0 -67 46 -28 70
11 7 20 93 20 192 0 107 -8 176 -19 169 -10 -7 -15 10 -9 39 7 38 0 50 -27 51
-30 2 -30 4 5 19 110 47 111 43 109 -260z m-1359 203 c0 -19 18 -70 40 -113
22 -43 40 -81 40 -84 0 -3 -36 -6 -80 -6 -90 0 -88 -6 -57 146 20 103 57 140
57 57z m398 45 c75 -16 80 -43 11 -60 -56 -14 -149 18 -149 52 0 23 47 26 138
8z m-1241 -553 c-13 -25 -22 -102 -20 -172 2 -94 -3 -124 -22 -118 -26 9 -28
65 -8 205 6 44 11 91 12 105 0 14 15 25 32 25 25 0 26 -7 6 -45z m2699 -190
c-6 -115 -6 -115 -74 -121 l-68 -7 13 77 c7 42 13 91 13 110 0 30 31 48 96 54
19 1 24 -28 20 -113z m-2471 62 c74 -12 75 -13 72 -100 l-4 -88 -101 12 c-148
18 -155 21 -144 84 5 30 9 66 10 80 2 27 52 31 167 12z m2307 -70 c-18 -114
-22 -117 -131 -117 l-96 0 6 65 c4 36 7 76 8 89 1 21 55 34 179 43 44 3 46 -2
34 -80z m-1885 -110 c70 -58 56 -58 -106 1 -122 44 -189 118 -146 160 10 11
153 -81 252 -161z m808 137 c311 3 565 2 564 -4 -1 -13 -401 -274 -445 -291
-19 -7 -34 -21 -34 -31 0 -33 49 -18 140 42 98 65 141 79 91 29 -27 -28 -42
-69 -25 -69 3 0 41 31 83 70 61 56 277 150 344 150 67 0 -22 -91 -118 -120
-121 -37 -293 -152 -294 -195 -1 -39 47 -29 75 16 15 23 36 35 50 27 13 -8 17
-7 9 2 -8 9 10 33 40 53 69 46 85 46 85 2 0 -19 14 -61 30 -92 17 -32 30 -59
30 -60 0 -2 -45 0 -100 4 -63 4 -100 -1 -100 -15 0 -14 55 -22 152 -22 l151 0
-11 -55 c-5 -30 -16 -118 -23 -195 -7 -77 -20 -169 -29 -205 -16 -64 3 -89 32
-41 8 13 27 114 41 224 34 265 26 252 164 252 170 0 249 18 222 52 -21 24 75
181 97 159 22 -22 -100 -1064 -128 -1089 -21 -19 -599 -205 -783 -251 -558
-142 -1124 -162 -1715 -59 -168 29 -260 218 -282 576 -13 225 7 310 38 156 28
-141 278 -664 318 -664 12 0 14 15 6 35 -141 337 -266 1185 -176 1185 58 0 70
-22 31 -54 -32 -26 -32 -27 9 -16 24 6 118 14 209 16 l166 4 54 -198 c89 -321
128 -312 59 13 l-36 175 92 2 c51 2 76 7 57 12 -41 11 -41 10 -12 75 30 65 47
64 120 -9 60 -60 97 -76 97 -42 0 31 -133 136 -269 212 -243 136 -140 140 146
6 280 -131 363 -246 363 -501 0 -183 33 -244 44 -80 12 189 -15 300 -97 401
-134 164 -154 185 -291 299 -163 135 -160 142 38 120 86 -9 410 -14 721 -11z
m745 -44 c0 -24 -59 -49 -160 -68 l-70 -14 80 51 c83 53 150 66 150 31z
m-2176 -241 c5 -32 3 -59 -5 -59 -21 0 -78 126 -66 145 18 29 62 -24 71 -86z
m116 46 c0 -30 14 -81 30 -113 37 -70 34 -75 -41 -55 -62 17 -89 84 -72 178
12 69 83 60 83 -10z m2460 13 c0 -48 -68 -161 -120 -198 -67 -48 -85 -34 -48
36 15 30 28 77 28 106 0 28 6 57 13 65 22 22 127 15 127 -9z"/>
<path d="M2954 3920 c-18 -48 -94 -339 -94 -360 0 -12 16 -10 39 4 21 13 33
33 26 43 -6 11 2 15 20 8 26 -10 35 7 45 92 14 106 -15 270 -36 213z"/>
<path d="M2649 3694 c-11 -76 -14 -141 -6 -146 21 -13 41 109 33 203 -5 70 -8
63 -27 -57z"/>
<path d="M2100 3178 c0 -20 269 -34 353 -18 58 10 23 16 -138 22 -118 4 -215
2 -215 -4z"/>
<path d="M2725 2888 c-85 -97 -71 -131 125 -298 77 -66 171 -149 210 -185 84
-78 151 -91 80 -15 -25 27 -130 119 -233 205 -139 116 -187 167 -187 203 l0
47 41 -52 c51 -65 82 -68 70 -8 -4 25 -9 62 -10 82 -1 31 -7 33 -29 14 -24
-19 -27 -16 -18 18 14 53 6 51 -49 -11z"/>
<path d="M1989 2783 c0 -64 -18 -100 -106 -205 -274 -330 -327 -400 -313 -414
8 -8 43 21 77 64 35 43 133 160 218 259 147 171 273 350 209 296 -24 -20 -32
-15 -42 26 -19 76 -43 61 -43 -26z"/>
<path d="M2080 1704 c0 -21 14 -50 30 -64 18 -15 30 -17 30 -4 0 11 -11 25
-25 31 -16 6 -17 10 -2 11 12 1 33 -11 47 -28 38 -46 75 -36 75 20 0 28 -1 50
-2 51 -85 25 -153 18 -153 -17z"/>
<path d="M2455 1702 c-35 -35 -49 -92 -20 -78 54 26 120 54 151 64 20 7 31 21
24 32 -20 32 -117 21 -155 -18z"/>
<path d="M3848 4697 c-5 -9 6 -11 26 -5 32 10 32 8 -3 -20 -21 -17 -32 -38
-25 -45 8 -7 32 3 55 24 40 36 40 36 26 0 -9 -24 -6 -33 7 -25 51 32 40 84
-18 86 -31 1 -62 -5 -68 -15z"/>
<path d="M2620 4689 c0 -43 46 -92 62 -67 29 46 20 78 -22 78 -22 0 -40 -5
-40 -11z"/>
<path d="M3870 4605 c-33 -25 -32 -65 2 -65 22 0 28 11 20 35 -11 31 -9 31 17
-2 15 -20 38 -31 51 -23 15 9 11 23 -14 41 -42 32 -49 33 -76 14z"/>
<path d="M1012 4345 c-6 -30 -13 -100 -15 -155 -2 -55 -10 -104 -17 -110 -30
-22 -38 -160 -11 -160 16 0 33 -33 41 -80 10 -61 23 -80 52 -80 47 0 49 26 6
62 -28 23 -32 66 -24 302 8 257 -6 351 -32 221z"/>
<path d="M4593 4210 c5 -14 28 -31 51 -37 30 -8 38 -22 31 -52 -6 -23 -3 -36
7 -30 37 23 16 80 -41 112 -42 24 -56 26 -48 7z"/>
<path d="M4567 4110 c7 -16 3 -30 -8 -30 -10 0 -19 -13 -19 -30 0 -46 34 -36
47 15 17 64 16 75 -9 75 -12 0 -17 -13 -11 -30z"/>
<path d="M44 3938 c-13 -77 -19 -149 -13 -160 6 -10 2 -18 -10 -18 -11 0 -21
-14 -21 -31 0 -44 65 -28 72 17 42 293 18 462 -28 192z"/>
<path d="M328 3755 c-9 -91 -14 -189 -11 -218 3 -29 -3 -58 -12 -64 -23 -14
-14 -140 11 -148 10 -4 17 -45 14 -91 -3 -49 -1 -57 4 -19 5 36 19 65 32 65
18 0 22 83 18 320 -6 349 -30 415 -56 155z"/>
<path d="M572 3816 c-17 -53 -4 -96 29 -96 25 0 31 13 24 50 -11 58 -42 85
-53 46z"/>
<path d="M1060 3669 c0 -27 9 -49 20 -49 11 0 20 4 20 8 0 5 5 22 11 38 6 16
-3 34 -20 41 -23 9 -31 -1 -31 -38z"/>
<path d="M540 3660 c0 -9 10 -20 23 -24 17 -6 17 -19 0 -51 -42 -79 -30 -145
28 -145 31 0 46 -8 38 -21 -7 -11 -28 -16 -46 -10 -29 9 -33 -3 -31 -81 4
-103 38 -158 61 -98 8 23 5 41 -9 45 -13 5 -24 26 -24 48 0 59 35 26 51 -48
29 -129 41 4 17 182 -12 95 -19 182 -15 193 4 11 -15 21 -43 23 -27 1 -50 -5
-50 -13z"/>
<path d="M8 3611 c-13 -32 -2 -336 25 -726 9 -116 5 -165 -10 -165 -13 0 -23
-20 -23 -45 1 -32 5 -37 17 -18 12 18 21 7 30 -39 14 -70 39 -62 62 22 10 38
9 43 -7 20 -18 -25 -21 -22 -22 16 0 26 8 41 19 35 10 -6 23 -3 30 7 6 11 -4
23 -24 28 -26 7 -23 10 11 12 26 1 41 11 34 22 -7 12 -21 16 -31 9 -10 -6 -13
3 -7 20 7 17 20 26 30 20 10 -6 18 3 18 20 0 17 -8 31 -18 31 -10 0 -14 46 -9
102 5 56 2 97 -7 92 -9 -5 -28 3 -42 18 -15 16 -17 28 -5 28 12 0 21 19 21 41
0 23 -8 36 -18 30 -18 -11 -55 180 -43 219 27 83 -3 274 -31 201z"/>
<path d="M252 3106 c-27 -353 -22 -466 20 -466 26 0 29 15 18 80 -12 73 -10
80 29 80 24 0 38 8 32 18 -6 10 -29 14 -51 8 -22 -6 -40 -1 -40 12 0 12 14 22
30 22 17 0 30 9 30 20 0 11 -13 20 -30 20 -16 0 -30 14 -30 30 0 17 7 30 15
30 16 0 14 297 -1 313 -5 5 -15 -71 -22 -167z"/>
<path d="M3980 3232 c0 -26 14 -53 30 -59 17 -7 30 -4 30 6 0 10 -11 21 -25
26 -19 7 -19 16 2 42 24 28 23 33 -5 33 -20 0 -32 -17 -32 -48z"/>
<path d="M374 3179 c-17 -64 16 -122 35 -63 7 24 5 58 -5 76 -16 28 -20 26
-30 -13z"/>
<path d="M527 3138 c7 -27 13 -86 13 -133 0 -47 7 -85 15 -85 26 0 10 248 -16
257 -18 6 -21 -6 -12 -39z"/>
<path d="M680 3053 c0 -70 8 -92 35 -97 26 -5 18 -15 -30 -37 -67 -30 -86 -59
-37 -59 15 0 33 14 39 30 7 17 26 30 42 30 38 0 38 5 4 86 -15 35 -23 74 -19
87 5 13 -1 29 -13 36 -13 9 -21 -19 -21 -76z"/>
<path d="M3992 3049 c-7 -28 -8 -59 -1 -70 6 -10 1 -19 -11 -19 -12 0 -16 -10
-9 -21 20 -33 31 -11 41 79 11 92 -1 109 -20 31z"/>
<path d="M4337 2945 c-13 -64 -3 -145 18 -145 17 0 19 14 5 50 -10 27 -14 63
-7 80 6 16 6 30 -1 30 -7 0 -13 -7 -15 -15z"/>
<path d="M4580 2610 c20 -24 16 -33 -25 -48 -105 -40 -174 -252 -117 -358 11
-21 16 -44 10 -50 -7 -6 13 -27 44 -47 41 -27 57 -30 63 -11 5 13 20 36 33 50
14 13 22 35 18 47 -5 13 4 22 18 22 93 -4 96 1 96 135 0 103 -6 130 -31 130
-16 0 -35 16 -41 35 -23 70 -55 125 -74 125 -10 0 -8 -13 6 -30z m12 -205 c-7
-63 -14 -139 -17 -168 -3 -30 -12 -61 -21 -70 -9 -9 -10 2 -2 24 14 38 14 38
-27 2 l-42 -36 39 151 c21 83 37 158 36 166 -5 31 2 46 24 46 14 0 18 -38 10
-115z"/>
<path d="M75 2488 c-14 -22 28 -168 48 -168 12 0 4 42 -31 169 -3 12 -9 12
-17 -1z"/>
<path d="M249 2425 c7 -30 13 -72 13 -92 0 -65 23 -18 32 66 8 67 4 81 -24 81
-28 0 -32 -11 -21 -55z"/>
<path d="M4332 1647 c-7 -18 -8 -37 -2 -43 5 -6 10 0 10 14 0 13 9 19 20 12
12 -7 15 -21 9 -31 -6 -11 -4 -30 4 -44 10 -17 19 -8 27 25 18 73 -43 132 -68
67z"/>
<path d="M2590 785 c-24 -18 -25 -137 -2 -159 9 -9 10 6 2 32 -12 40 -9 46 20
35 19 -8 47 -4 62 9 22 18 31 13 45 -23 11 -32 21 -38 32 -21 9 15 1 35 -20
50 -19 14 -29 36 -21 49 22 36 -11 27 -38 -10 -15 -20 -34 -27 -50 -17 -20 13
-18 22 11 43 27 20 29 27 8 27 -16 0 -38 -7 -49 -15z"/>
<path d="M3246 665 c2 -34 12 -56 21 -50 10 5 25 -2 35 -17 14 -22 17 -20 18
8 0 20 -18 55 -39 78 l-40 42 5 -61z"/>
<path d="M3423 649 c-37 -81 -26 -105 17 -39 43 65 49 90 23 90 -9 0 -27 -23
-40 -51z"/>
<path d="M2860 509 c0 -64 -5 -72 -40 -63 -22 6 -40 2 -40 -8 0 -31 95 -19
108 14 18 47 14 104 -8 118 -12 7 -20 -17 -20 -61z"/>
<path d="M1474 368 c-8 -8 -14 -28 -14 -45 0 -24 7 -22 30 8 30 39 30 39 62
-1 32 -40 32 -40 25 0 -7 40 -76 65 -103 38z"/>
<path d="M4202 336 c-1 -29 -11 -59 -22 -66 -12 -7 -16 -21 -10 -30 6 -10 -14
-15 -45 -11 -79 9 -90 -5 -45 -54 50 -53 53 -98 5 -81 -27 9 -30 6 -12 -13 29
-32 67 -10 67 38 0 21 19 41 45 48 67 18 75 16 62 -17 -6 -16 -23 -30 -38 -30
-15 0 -32 -9 -39 -20 -7 -12 2 -14 22 -6 25 9 30 6 18 -13 -10 -18 -7 -23 12
-16 15 5 26 20 23 33 -3 13 22 28 55 35 33 7 60 20 60 30 0 9 10 17 21 17 12
0 16 -8 10 -18 -6 -9 12 -22 39 -27 28 -5 50 -2 50 7 0 9 15 11 33 4 21 -8 29
-5 21 8 -7 12 -36 21 -64 21 -28 0 -68 16 -89 34 -21 19 -49 28 -62 20 -18
-11 -22 3 -15 48 7 50 4 58 -18 40 -20 -17 -26 -11 -28 26 0 26 -6 35 -11 21
-14 -35 50 -168 74 -153 11 6 19 1 19 -12 0 -15 -17 -19 -45 -12 -25 7 -56 13
-70 13 -26 0 -26 42 -1 61 8 6 7 37 -3 70 l-18 59 -1 -54z"/>
<path d="M3465 247 c-14 -6 -25 -20 -25 -33 0 -15 7 -15 24 2 36 36 54 29 42
-16 -6 -22 -18 -35 -27 -29 -9 5 -22 1 -29 -11 -7 -12 12 -20 48 -20 76 0 96
32 51 81 -37 41 -43 42 -84 26z"/>
<path d="M3900 211 c0 -15 -18 -34 -40 -41 -62 -20 -47 -44 20 -34 33 5 74 -3
90 -16 24 -20 30 -19 30 5 0 17 -19 35 -43 41 -28 8 -38 22 -30 43 6 17 3 31
-8 31 -10 0 -19 -13 -19 -29z"/>
<path d="M3280 70 c0 -91 31 -91 34 0 1 39 -6 70 -16 70 -10 0 -18 -31 -18
-70z"/>
<path d="M4395 61 c-11 -40 -310 -53 -368 -16 -13 8 -28 2 -34 -15 -10 -26 21
-30 208 -30 120 0 219 8 219 18 0 10 5 33 12 50 7 18 3 32 -8 32 -10 0 -24
-17 -29 -39z"/>
<path d="M3440 18 c0 -10 78 -18 173 -18 96 0 167 6 160 14 -21 21 -333 25
-333 4z"/>
</g>
</svg>
